<mxfile host="app.diagrams.net" modified="2021-06-22T15:52:35.561Z" agent="5.0 (Macintosh; Intel Mac OS X 10_15_7) AppleWebKit/537.36 (KHTML, like Gecko) Chrome/91.0.4472.106 Safari/537.36" etag="WxCe8fZlHfs_RCfjJJdx" version="14.8.0" type="github">
  <diagram id="DUM9wrm7uSFUNnV5nkNa" name="Page-1">
    <mxGraphModel dx="946" dy="614" grid="1" gridSize="10" guides="1" tooltips="1" connect="1" arrows="1" fold="1" page="1" pageScale="1" pageWidth="850" pageHeight="1100" math="0" shadow="0">
      <root>
        <mxCell id="0" />
        <mxCell id="1" parent="0" />
        <mxCell id="23u97QHmD7oz6MEqpWMB-26" value="" style="ellipse;whiteSpace=wrap;html=1;" vertex="1" parent="1">
          <mxGeometry x="400" y="170" width="85" height="60" as="geometry" />
        </mxCell>
        <mxCell id="23u97QHmD7oz6MEqpWMB-25" value="" style="ellipse;whiteSpace=wrap;html=1;" vertex="1" parent="1">
          <mxGeometry x="532.5" y="110" width="85" height="60" as="geometry" />
        </mxCell>
        <mxCell id="23u97QHmD7oz6MEqpWMB-24" value="" style="ellipse;whiteSpace=wrap;html=1;" vertex="1" parent="1">
          <mxGeometry x="447.5" y="110" width="85" height="60" as="geometry" />
        </mxCell>
        <mxCell id="23u97QHmD7oz6MEqpWMB-21" value="" style="ellipse;whiteSpace=wrap;html=1;" vertex="1" parent="1">
          <mxGeometry x="480" y="50" width="85" height="60" as="geometry" />
        </mxCell>
        <mxCell id="23u97QHmD7oz6MEqpWMB-20" value="" style="ellipse;whiteSpace=wrap;html=1;" vertex="1" parent="1">
          <mxGeometry x="350" y="120" width="85" height="60" as="geometry" />
        </mxCell>
        <mxCell id="23u97QHmD7oz6MEqpWMB-19" value="" style="ellipse;whiteSpace=wrap;html=1;" vertex="1" parent="1">
          <mxGeometry x="267.5" y="110" width="85" height="60" as="geometry" />
        </mxCell>
        <mxCell id="23u97QHmD7oz6MEqpWMB-18" value="" style="ellipse;whiteSpace=wrap;html=1;" vertex="1" parent="1">
          <mxGeometry x="375" y="40" width="85" height="60" as="geometry" />
        </mxCell>
        <mxCell id="23u97QHmD7oz6MEqpWMB-17" value="" style="ellipse;whiteSpace=wrap;html=1;" vertex="1" parent="1">
          <mxGeometry x="290" y="40" width="85" height="60" as="geometry" />
        </mxCell>
        <mxCell id="23u97QHmD7oz6MEqpWMB-1" value="" style="endArrow=classic;html=1;" edge="1" parent="1">
          <mxGeometry width="50" height="50" relative="1" as="geometry">
            <mxPoint x="200" y="440" as="sourcePoint" />
            <mxPoint x="680" y="440" as="targetPoint" />
          </mxGeometry>
        </mxCell>
        <mxCell id="23u97QHmD7oz6MEqpWMB-2" value="" style="endArrow=classic;html=1;" edge="1" parent="1">
          <mxGeometry width="50" height="50" relative="1" as="geometry">
            <mxPoint x="200" y="440" as="sourcePoint" />
            <mxPoint x="200" y="50" as="targetPoint" />
          </mxGeometry>
        </mxCell>
        <mxCell id="23u97QHmD7oz6MEqpWMB-3" value="Importance&lt;span style=&quot;color: rgba(0 , 0 , 0 , 0) ; font-family: monospace ; font-size: 0px&quot;&gt;%3CmxGraphModel%3E%3Croot%3E%3CmxCell%20id%3D%220%22%2F%3E%3CmxCell%20id%3D%221%22%20parent%3D%220%22%2F%3E%3CmxCell%20id%3D%222%22%20value%3D%22%22%20style%3D%22endArrow%3Dclassic%3Bhtml%3D1%3B%22%20edge%3D%221%22%20parent%3D%221%22%3E%3CmxGeometry%20width%3D%2250%22%20height%3D%2250%22%20relative%3D%221%22%20as%3D%22geometry%22%3E%3CmxPoint%20x%3D%22200%22%20y%3D%22440%22%20as%3D%22sourcePoint%22%2F%3E%3CmxPoint%20x%3D%22680%22%20y%3D%22440%22%20as%3D%22targetPoint%22%2F%3E%3C%2FmxGeometry%3E%3C%2FmxCell%3E%3C%2Froot%3E%3C%2FmxGraphModel%3E&lt;/span&gt;" style="text;html=1;strokeColor=none;fillColor=none;align=center;verticalAlign=middle;whiteSpace=wrap;rounded=0;rotation=-90;" vertex="1" parent="1">
          <mxGeometry x="140" y="90" width="90" height="20" as="geometry" />
        </mxCell>
        <mxCell id="23u97QHmD7oz6MEqpWMB-5" value="Time" style="text;html=1;strokeColor=none;fillColor=none;align=center;verticalAlign=middle;whiteSpace=wrap;rounded=0;rotation=0;" vertex="1" parent="1">
          <mxGeometry x="590" y="450" width="90" height="20" as="geometry" />
        </mxCell>
        <mxCell id="23u97QHmD7oz6MEqpWMB-6" value="Media Query" style="text;html=1;strokeColor=none;fillColor=none;align=center;verticalAlign=middle;whiteSpace=wrap;rounded=0;" vertex="1" parent="1">
          <mxGeometry x="370" y="140" width="40" height="20" as="geometry" />
        </mxCell>
        <mxCell id="23u97QHmD7oz6MEqpWMB-7" value="Flexbox" style="text;html=1;strokeColor=none;fillColor=none;align=center;verticalAlign=middle;whiteSpace=wrap;rounded=0;" vertex="1" parent="1">
          <mxGeometry x="422.5" y="190" width="40" height="20" as="geometry" />
        </mxCell>
        <mxCell id="23u97QHmD7oz6MEqpWMB-8" value="Search Bar" style="text;html=1;strokeColor=none;fillColor=none;align=center;verticalAlign=middle;whiteSpace=wrap;rounded=0;" vertex="1" parent="1">
          <mxGeometry x="500" y="70" width="40" height="20" as="geometry" />
        </mxCell>
        <mxCell id="23u97QHmD7oz6MEqpWMB-9" value="Responsive Design" style="text;html=1;strokeColor=none;fillColor=none;align=center;verticalAlign=middle;whiteSpace=wrap;rounded=0;" vertex="1" parent="1">
          <mxGeometry x="555" y="130" width="40" height="20" as="geometry" />
        </mxCell>
        <mxCell id="23u97QHmD7oz6MEqpWMB-10" value="Get API Data" style="text;html=1;strokeColor=none;fillColor=none;align=center;verticalAlign=middle;whiteSpace=wrap;rounded=0;" vertex="1" parent="1">
          <mxGeometry x="290" y="130" width="40" height="20" as="geometry" />
        </mxCell>
        <mxCell id="23u97QHmD7oz6MEqpWMB-11" value="CSS Styling" style="text;html=1;strokeColor=none;fillColor=none;align=center;verticalAlign=middle;whiteSpace=wrap;rounded=0;" vertex="1" parent="1">
          <mxGeometry x="400" y="60" width="40" height="20" as="geometry" />
        </mxCell>
        <mxCell id="23u97QHmD7oz6MEqpWMB-12" value="HTML content" style="text;html=1;strokeColor=none;fillColor=none;align=center;verticalAlign=middle;whiteSpace=wrap;rounded=0;" vertex="1" parent="1">
          <mxGeometry x="310" y="60" width="40" height="20" as="geometry" />
        </mxCell>
        <mxCell id="23u97QHmD7oz6MEqpWMB-13" value="Append to DOM" style="text;html=1;strokeColor=none;fillColor=none;align=center;verticalAlign=middle;whiteSpace=wrap;rounded=0;" vertex="1" parent="1">
          <mxGeometry x="470" y="130" width="40" height="20" as="geometry" />
        </mxCell>
      </root>
    </mxGraphModel>
  </diagram>
</mxfile>
